<svg width="24" height="24" viewBox="0 0 24 24" fill="none" xmlns="http://www.w3.org/2000/svg">
<path d="M2 17H22M2 11L3.5 12.5M3.5 12.5L5 14M3.5 12.5L5 11M3.5 12.5L2 14M22 14H20.6004C19.5 14 20.5447 11.9054 19.6666 11.4356C18.7334 10.9365 17.6761 15.9311 16.865 13.9315C16.1018 12.0499 15.1203 11.0229 13.9408 10.9147M13.9408 10.9147C13.9046 9.77659 13.779 8.73541 13.5965 7.9414C13.0341 5.49333 10.6616 2.94968 8.46035 4.44715C5.32044 6.58312 7.88493 10.8714 10.1625 13.0376M13.9408 10.9147C14.0583 14.6141 13.2296 19.3372 10.3281 19.9217C6.54656 20.6833 7.98742 15.6819 9.3942 13.9315C9.65506 13.607 9.91118 13.3091 10.1625 13.0376M13.9408 10.9147C12.8463 10.8142 11.5814 11.5048 10.1625 13.0376M11.2607 13.9315C10.9219 13.7075 10.5463 13.4027 10.1625 13.0376" stroke="black" stroke-width="2" stroke-linecap="square"/>
</svg>
