<svg width="24" height="24" viewBox="0 0 24 24" fill="none" xmlns="http://www.w3.org/2000/svg">
<path d="M20.4593 14.9999L20.7926 14.0571L18.9069 13.3906L18.5736 14.3334L20.4593 14.9999ZM19 8V9H20V8H19ZM20 4V3H18V4H20ZM15 7H14V9H15V7ZM17.4113 7.67253L18.0838 8.4126L19.564 7.06753L18.8914 6.32747L17.4113 7.67253ZM11.9717 20V19C8.10569 19 4.97168 15.866 4.97168 12H3.97168H2.97168C2.97168 16.9706 7.00112 21 11.9717 21V20ZM3.97168 12H4.97168C4.97168 8.13401 8.10569 5 11.9717 5V4V3C7.00112 3 2.97168 7.02944 2.97168 12H3.97168ZM19.5165 14.6667L18.5736 14.3334C17.6122 17.0536 15.018 19 11.9717 19V20V21C15.8919 21 19.2243 18.4941 20.4593 14.9999L19.5165 14.6667ZM19 4H18V8H19H20V4H19ZM19 8V7H15V8V9H19V8ZM11.9717 4V5C14.2679 5 15.818 5.91919 17.4113 7.67253L18.1514 7L18.8914 6.32747C17.0414 4.2917 14.9909 3 11.9717 3V4Z" fill="black"/>
</svg>
