<svg width="24" height="24" viewBox="0 0 24 24" fill="none" xmlns="http://www.w3.org/2000/svg">
<path d="M12.1701 6.55317C11.7603 6.92313 11.1282 6.89099 10.758 6.4813C10.3877 6.0715 10.4198 5.43915 10.8296 5.0689L11.4699 5.77761C10.8296 5.06889 10.8294 5.06907 10.8296 5.0689L10.8315 5.06716L10.8346 5.06444L10.8439 5.05609L10.8754 5.02835C10.9019 5.00515 10.9393 4.97274 10.9866 4.93279C11.0811 4.85301 11.2156 4.74249 11.3811 4.6147C11.7094 4.36132 12.173 4.02966 12.698 3.73496C13.213 3.44584 13.8431 3.16007 14.4961 3.04878C15.1588 2.93584 15.9542 2.98894 16.628 3.5327C17.0124 3.8429 17.313 4.21547 17.475 4.66058C17.6397 5.11304 17.6317 5.55958 17.5289 5.96083C17.3388 6.70269 16.8095 7.33781 16.3808 7.79577C16.1819 8.00827 15.9737 8.21367 15.7845 8.39896C15.8923 8.37744 16.0077 8.35483 16.132 8.33153C16.7008 8.22496 17.4001 8.11951 18.0954 8.17773C18.8097 8.23755 19.579 8.47552 20.2071 9.10362C20.9974 9.89391 21.1081 10.8475 21.004 11.6521C20.9254 12.2599 20.7053 12.8892 20.5435 13.352C20.5085 13.4521 20.4762 13.5444 20.4487 13.627C20.274 14.1509 19.7077 14.4341 19.1838 14.2594C18.6598 14.0848 18.3767 13.5184 18.5513 12.9945C18.5973 12.8567 18.6424 12.7262 18.6857 12.6013C18.8412 12.1522 18.9713 11.7761 19.0205 11.3956C19.075 10.9748 19.0026 10.7275 18.7929 10.5178C18.5926 10.3175 18.3227 10.2038 17.9285 10.1708C17.5153 10.1362 17.037 10.1968 16.5004 10.2973C16.3765 10.3205 16.2414 10.3478 16.101 10.3762C15.7083 10.4556 15.2736 10.5436 14.9242 10.574C14.6757 10.5957 14.3565 10.6025 14.042 10.5144C13.692 10.4162 13.3212 10.1893 13.1056 9.75817C12.845 9.23712 12.9922 8.73955 13.1343 8.4465C13.2753 8.1559 13.4888 7.8959 13.6741 7.69094C13.8676 7.47681 14.0938 7.25519 14.303 7.05048L14.3183 7.03554C14.5302 6.82809 14.7325 6.63012 14.9206 6.42909C15.3339 5.98752 15.5381 5.67286 15.5915 5.46432C15.6105 5.39038 15.6018 5.36156 15.5957 5.34473C15.5868 5.32054 15.5464 5.22987 15.372 5.08909C15.2958 5.02758 15.1537 4.96554 14.8321 5.02036C14.5007 5.07684 14.0995 5.24172 13.677 5.47892C13.2645 5.71054 12.8844 5.98085 12.6032 6.19787C12.4641 6.30528 12.3525 6.39707 12.2771 6.46079C12.2394 6.49259 12.2109 6.51724 12.1928 6.53315L12.1734 6.55021L12.1701 6.55317Z" fill="black"/>
<path d="M7.5 7.4996C5.01472 7.4996 3 9.51432 3 11.9996C3 14.4849 5.01472 16.4996 7.5 16.4996C9.98528 16.4996 12 14.4849 12 11.9996C12 9.51432 9.98528 7.4996 7.5 7.4996Z" fill="black"/>
<path d="M15.8423 13.2105C15.6585 12.9233 15.341 12.7496 15 12.7496C14.659 12.7496 14.3415 12.9233 14.1577 13.2105L10.1577 19.4605C9.96073 19.7684 9.94733 20.1591 10.1228 20.4797C10.2982 20.8003 10.6346 20.9996 11 20.9996H19C19.3654 20.9996 19.7018 20.8003 19.8772 20.4797C20.0527 20.1591 20.0393 19.7684 19.8423 19.4605L15.8423 13.2105Z" fill="black"/>
</svg>
