<svg width="24" height="24" viewBox="0 0 24 24" fill="none" xmlns="http://www.w3.org/2000/svg">
<path fill-rule="evenodd" clip-rule="evenodd" d="M12.53 3.152C12.2057 2.94933 11.7943 2.94933 11.47 3.152L3.47 8.152C3.17762 8.33474 3 8.65521 3 9V20C3 20.5523 3.44772 21 4 21H7.02469C7.27555 18.4733 9.40733 16.5 12 16.5C14.5927 16.5 16.7245 18.4733 16.9753 21H20C20.5523 21 21 20.5523 21 20V9C21 8.65521 20.8224 8.33474 20.53 8.152L12.53 3.152ZM12 9.75C10.6193 9.75 9.5 10.8693 9.5 12.25C9.5 13.6307 10.6193 14.75 12 14.75C13.3807 14.75 14.5 13.6307 14.5 12.25C14.5 10.8693 13.3807 9.75 12 9.75Z" fill="black"/>
</svg>
